<svg id="visual" viewBox="0 0 900 600" width="900" height="600" xmlns="http://www.w3.org/2000/svg" xmlns:xlink="http://www.w3.org/1999/xlink" version="1.1"><rect x="0" y="0" width="900" height="600" fill="#181525"></rect><path d="M0 405L18.8 403C37.7 401 75.3 397 112.8 396.3C150.3 395.7 187.7 398.3 225.2 407.5C262.7 416.7 300.3 432.3 337.8 436.7C375.3 441 412.7 434 450.2 424.2C487.7 414.3 525.3 401.7 562.8 402.2C600.3 402.7 637.7 416.3 675.2 417.2C712.7 418 750.3 406 787.8 400.5C825.3 395 862.7 396 881.3 396.5L900 397L900 601L881.3 601C862.7 601 825.3 601 787.8 601C750.3 601 712.7 601 675.2 601C637.7 601 600.3 601 562.8 601C525.3 601 487.7 601 450.2 601C412.7 601 375.3 601 337.8 601C300.3 601 262.7 601 225.2 601C187.7 601 150.3 601 112.8 601C75.3 601 37.7 601 18.8 601L0 601Z" fill="#fa7268"></path><path d="M0 447L18.8 450.3C37.7 453.7 75.3 460.3 112.8 459.8C150.3 459.3 187.7 451.7 225.2 444.3C262.7 437 300.3 430 337.8 427.2C375.3 424.3 412.7 425.7 450.2 429.2C487.7 432.7 525.3 438.3 562.8 434C600.3 429.7 637.7 415.3 675.2 420.3C712.7 425.3 750.3 449.7 787.8 458C825.3 466.3 862.7 458.7 881.3 454.8L900 451L900 601L881.3 601C862.7 601 825.3 601 787.8 601C750.3 601 712.7 601 675.2 601C637.7 601 600.3 601 562.8 601C525.3 601 487.7 601 450.2 601C412.7 601 375.3 601 337.8 601C300.3 601 262.7 601 225.2 601C187.7 601 150.3 601 112.8 601C75.3 601 37.7 601 18.8 601L0 601Z" fill="#f36567"></path><path d="M0 492L18.8 483.7C37.7 475.3 75.3 458.7 112.8 453.3C150.3 448 187.7 454 225.2 458.2C262.7 462.3 300.3 464.7 337.8 462C375.3 459.3 412.7 451.7 450.2 453.2C487.7 454.7 525.3 465.3 562.8 466.2C600.3 467 637.7 458 675.2 454.7C712.7 451.3 750.3 453.7 787.8 460.5C825.3 467.3 862.7 478.7 881.3 484.3L900 490L900 601L881.3 601C862.7 601 825.3 601 787.8 601C750.3 601 712.7 601 675.2 601C637.7 601 600.3 601 562.8 601C525.3 601 487.7 601 450.2 601C412.7 601 375.3 601 337.8 601C300.3 601 262.7 601 225.2 601C187.7 601 150.3 601 112.8 601C75.3 601 37.7 601 18.8 601L0 601Z" fill="#eb5967"></path><path d="M0 477L18.8 477.8C37.7 478.7 75.3 480.3 112.8 487.2C150.3 494 187.7 506 225.2 507.5C262.7 509 300.3 500 337.8 490.3C375.3 480.7 412.7 470.3 450.2 470.3C487.7 470.3 525.3 480.7 562.8 485.2C600.3 489.7 637.7 488.3 675.2 490.2C712.7 492 750.3 497 787.8 494.8C825.3 492.7 862.7 483.3 881.3 478.7L900 474L900 601L881.3 601C862.7 601 825.3 601 787.8 601C750.3 601 712.7 601 675.2 601C637.7 601 600.3 601 562.8 601C525.3 601 487.7 601 450.2 601C412.7 601 375.3 601 337.8 601C300.3 601 262.7 601 225.2 601C187.7 601 150.3 601 112.8 601C75.3 601 37.7 601 18.8 601L0 601Z" fill="#e34c67"></path><path d="M0 526L18.8 527.2C37.7 528.3 75.3 530.7 112.8 532.7C150.3 534.7 187.7 536.3 225.2 533.5C262.7 530.7 300.3 523.3 337.8 515.5C375.3 507.7 412.7 499.3 450.2 495.3C487.7 491.3 525.3 491.7 562.8 498.2C600.3 504.7 637.7 517.3 675.2 516.7C712.7 516 750.3 502 787.8 500.3C825.3 498.7 862.7 509.3 881.3 514.7L900 520L900 601L881.3 601C862.7 601 825.3 601 787.8 601C750.3 601 712.7 601 675.2 601C637.7 601 600.3 601 562.8 601C525.3 601 487.7 601 450.2 601C412.7 601 375.3 601 337.8 601C300.3 601 262.7 601 225.2 601C187.7 601 150.3 601 112.8 601C75.3 601 37.7 601 18.8 601L0 601Z" fill="#da3f67"></path><path d="M0 526L18.8 530.8C37.7 535.7 75.3 545.3 112.8 548.8C150.3 552.3 187.7 549.7 225.2 548.7C262.7 547.7 300.3 548.3 337.8 548.5C375.3 548.7 412.7 548.3 450.2 544.7C487.7 541 525.3 534 562.8 529.7C600.3 525.3 637.7 523.7 675.2 525.2C712.7 526.7 750.3 531.3 787.8 537C825.3 542.7 862.7 549.3 881.3 552.7L900 556L900 601L881.3 601C862.7 601 825.3 601 787.8 601C750.3 601 712.7 601 675.2 601C637.7 601 600.3 601 562.8 601C525.3 601 487.7 601 450.2 601C412.7 601 375.3 601 337.8 601C300.3 601 262.7 601 225.2 601C187.7 601 150.3 601 112.8 601C75.3 601 37.7 601 18.8 601L0 601Z" fill="#d03267"></path><path d="M0 556L18.8 558.5C37.7 561 75.3 566 112.8 567.7C150.3 569.3 187.7 567.7 225.2 567.2C262.7 566.7 300.3 567.3 337.8 566C375.3 564.7 412.7 561.3 450.2 560.5C487.7 559.7 525.3 561.3 562.8 561C600.3 560.7 637.7 558.3 675.2 557.3C712.7 556.3 750.3 556.7 787.8 556C825.3 555.3 862.7 553.7 881.3 552.8L900 552L900 601L881.3 601C862.7 601 825.3 601 787.8 601C750.3 601 712.7 601 675.2 601C637.7 601 600.3 601 562.8 601C525.3 601 487.7 601 450.2 601C412.7 601 375.3 601 337.8 601C300.3 601 262.7 601 225.2 601C187.7 601 150.3 601 112.8 601C75.3 601 37.7 601 18.8 601L0 601Z" fill="#c62368"></path></svg>